<?xml version="1.0" encoding="utf-8"?>
<!-- Generator: Adobe Illustrator 27.9.0, SVG Export Plug-In . SVG Version: 6.00 Build 0)  -->
<svg version="1.1" id="Layer_1" xmlns="http://www.w3.org/2000/svg" xmlns:xlink="http://www.w3.org/1999/xlink" x="0px" y="0px"
	 viewBox="0 0 400 200" style="enable-background:new 0 0 400 200;" xml:space="preserve">
<style type="text/css">
	.st0{fill:#EB933B;}
	.st1{fill:#FFC131;}
	.st2{fill:#FFFFFF;}
	.st3{fill:#45ABBD;}
	.st4{fill:#51C7DB;}
	.st5{fill:#86B026;}
	.st6{fill:#A4D72E;}
</style>
<g>
	<g>
		<g>
			<path class="st0" d="M114.24,168.34l-60.47-32.51c-7-3.76-10.08-12.64-6.81-20l32.38-72.91c4.3-9.69,14.64-14.13,22.97-9.65
				l71.99,38.7c8.33,4.48,10.23,15.5,4.4,24.36l-43.85,66.75C130.41,169.82,121.24,172.11,114.24,168.34z"/>
			<path class="st1" d="M107.51,164.73l-60.47-32.51c-7-3.76-10.15-12.68-6.97-20.09l31.48-73.4c4.18-9.75,14.42-14.24,22.75-9.77
				l71.99,38.7c8.33,4.48,10.33,15.55,4.62,24.48l-42.95,67.23C123.61,166.16,114.51,168.49,107.51,164.73z"/>
		</g>
		<g>
			<path class="st2" d="M90.48,112.64V97.45c0-1.41,1.14-2.54,2.54-2.54h10.18c4.22,0,7.63-3.42,7.63-7.63l0,0
				c0-4.22-3.42-7.63-7.63-7.63H87.93c-4.22,0-7.63-3.42-7.63-7.63v0c0-4.22,3.42-7.63,7.63-7.63h17.81
				c13.57,0,20.36,6.79,20.36,20.36v5.09c0,13.57-6.79,20.36-20.36,20.36v2.46c0,1.45-1.18,2.63-2.63,2.63H93.1
				C91.65,115.27,90.48,114.09,90.48,112.64z M105.75,122.9v10.18c0,1.41-1.14,2.54-2.54,2.54H93.02c-1.41,0-2.54-1.14-2.54-2.54
				V122.9c0-1.41,1.14-2.54,2.54-2.54h10.18C104.61,120.36,105.75,121.5,105.75,122.9z"/>
		</g>
	</g>
	<g>
		<path class="st3" d="M345.51,56.39l-68.58-22.7c-7.94-2.63-16.95,1.44-20.21,9.26l-32.3,77.48c-4.29,10.29-0.21,21.41,9.24,24.53
			l81.64,27.03c9.45,3.13,19.24-3.39,21.8-14.26l19.29-81.79C358.34,67.68,353.45,59.02,345.51,56.39z"/>
		<path class="st4" d="M337.88,53.86l-68.58-22.7c-7.94-2.63-17.03,1.41-20.4,9.2l-33.32,77.15c-4.43,10.25-0.46,21.32,8.99,24.45
			l81.64,27.03c9.45,3.13,19.35-3.35,22.05-14.17l20.31-81.45C350.62,65.13,345.81,56.49,337.88,53.86z"/>
		<g>
			<path class="st2" d="M291.13,120.68c1.37,0.01,2.75,0.07,4.15,0.18c0.35,0.03,0.71,0.06,1.08,0.1c1.98,0.19,3.54,1.77,3.69,3.75
				c0,0.01,0,0.02,0,0.03c0.08,1.04,0.09,2.03,0.04,2.97c-0.05,0.93-0.17,1.91-0.35,2.91c0,0.03-0.01,0.05-0.01,0.08
				c-0.33,1.82-1.86,3.19-3.7,3.34c-0.37,0.03-0.74,0.06-1.1,0.08c-1.31,0.08-2.6,0.12-3.87,0.12c-1.27-0.01-2.56-0.06-3.87-0.16
				c-0.36-0.03-0.73-0.06-1.1-0.09c-1.84-0.17-3.36-1.55-3.67-3.37c0-0.03-0.01-0.05-0.01-0.08c-0.17-1.01-0.28-1.98-0.32-2.92
				c-0.04-0.94-0.02-1.93,0.07-2.97c0-0.01,0-0.02,0-0.03c0.17-1.98,1.75-3.54,3.73-3.72c0.37-0.03,0.73-0.06,1.08-0.09
				C288.37,120.72,289.76,120.67,291.13,120.68z M279.91,67.25c-0.14-2.23,1.54-4.15,3.77-4.34c0.71-0.06,1.42-0.1,2.12-0.13
				c1.98-0.08,3.86-0.11,5.62-0.1c1.76,0.01,3.61,0.06,5.56,0.16c0.73,0.04,1.48,0.09,2.24,0.17c2.2,0.21,3.82,2.16,3.66,4.37
				l-2.99,42.03c-0.14,1.98-1.67,3.58-3.64,3.78c-0.44,0.05-0.87,0.09-1.27,0.12c-1.34,0.11-2.61,0.16-3.8,0.15
				c-1.42-0.01-3.1-0.12-5.05-0.34c-1.98-0.23-3.5-1.84-3.63-3.82L279.91,67.25z"/>
		</g>
	</g>
	<g>
		<ellipse class="st5" cx="206.22" cy="99.29" rx="59.89" ry="63.17"/>
		<ellipse class="st6" cx="195.32" cy="99.29" rx="59.89" ry="63.17"/>
		<path class="st2" d="M161.62,93.17l-0.02,0.02c-4,3.96-4,10.66,0,14.62l18.63,18.42c3.69,3.65,9.44,3.61,13.09-0.09l40.28-40.92
			c3.92-3.98,3.87-10.6-0.09-14.53l0,0c-3.7-3.66-9.48-3.61-13.12,0.13l-31.51,32.31c-1.15,1.18-2.97,1.2-4.14,0.04l-10.11-10
			C170.96,89.55,165.28,89.55,161.62,93.17z"/>
	</g>
</g>
</svg>
